<?xml version="1.0" encoding="utf-8"?>
<!-- Generator: Adobe Illustrator 25.4.1, SVG Export Plug-In . SVG Version: 6.00 Build 0)  -->
<svg version="1.1" id="Layer_1" xmlns="http://www.w3.org/2000/svg" xmlns:xlink="http://www.w3.org/1999/xlink" x="0px" y="0px"
	 viewBox="0 0 198.425 51.024" style="enable-background:new 0 0 198.425 51.024;" xml:space="preserve">
<style type="text/css">
	.st0{fill:#FFFFFF;}
</style>
<g>
	<g>
		<path class="st0" d="M138.006,35.962v0.77l-1.487,0.176c0.137,0.171,0.259,0.395,0.366,0.67c0.107,0.276,0.161,0.587,0.161,0.934
			c0,0.786-0.269,1.414-0.806,1.883s-1.274,0.703-2.212,0.703c-0.239,0-0.464-0.02-0.674-0.059
			c-0.518,0.273-0.776,0.617-0.776,1.032c0,0.22,0.091,0.383,0.271,0.487c0.181,0.105,0.49,0.157,0.93,0.157h1.421
			c0.869,0,1.537,0.184,2.003,0.55c0.467,0.366,0.7,0.898,0.7,1.597c0,0.889-0.356,1.565-1.069,2.032
			c-0.713,0.466-1.753,0.699-3.12,0.699c-1.05,0-1.859-0.195-2.429-0.586c-0.568-0.391-0.853-0.942-0.853-1.655
			c0-0.488,0.156-0.91,0.469-1.267s0.752-0.599,1.318-0.726c-0.205-0.093-0.378-0.236-0.517-0.432
			c-0.14-0.195-0.209-0.423-0.209-0.682c0-0.293,0.078-0.549,0.234-0.769s0.403-0.433,0.74-0.638
			c-0.415-0.171-0.754-0.461-1.015-0.871c-0.262-0.41-0.392-0.879-0.392-1.406c0-0.879,0.264-1.557,0.791-2.033
			s1.274-0.714,2.241-0.714c0.42,0,0.798,0.049,1.135,0.146h2.779V35.962z M131.605,45.337c0,0.435,0.183,0.765,0.549,0.989
			s0.892,0.337,1.575,0.337c1.021,0,1.775-0.153,2.267-0.458c0.49-0.306,0.736-0.719,0.736-1.241c0-0.435-0.135-0.736-0.403-0.905
			c-0.269-0.168-0.773-0.252-1.516-0.252h-1.458c-0.552,0-0.981,0.132-1.289,0.396S131.605,44.844,131.605,45.337z M132.264,38.533
			c0,0.562,0.158,0.986,0.476,1.274s0.76,0.432,1.326,0.432c1.187,0,1.779-0.576,1.779-1.729c0-1.206-0.601-1.809-1.802-1.809
			c-0.571,0-1.011,0.153-1.318,0.461S132.264,37.928,132.264,38.533z"/>
		<path class="st0" d="M143.322,35.815c0.356,0,0.677,0.029,0.96,0.088l-0.169,1.128c-0.332-0.073-0.625-0.109-0.879-0.109
			c-0.649,0-1.205,0.264-1.666,0.791c-0.462,0.527-0.692,1.184-0.692,1.97v4.307h-1.216v-8.027h1.004l0.139,1.487h0.059
			c0.298-0.522,0.657-0.926,1.077-1.209S142.819,35.815,143.322,35.815z"/>
		<path class="st0" d="M152.572,39.969c0,1.309-0.33,2.33-0.989,3.064c-0.659,0.735-1.569,1.103-2.731,1.103
			c-0.718,0-1.355-0.168-1.912-0.505s-0.986-0.82-1.289-1.45s-0.454-1.367-0.454-2.212c0-1.309,0.327-2.328,0.981-3.059
			c0.654-0.729,1.562-1.095,2.725-1.095c1.123,0,2.016,0.374,2.678,1.121C152.241,37.683,152.572,38.694,152.572,39.969z
			 M146.456,39.969c0,1.025,0.205,1.807,0.615,2.344s1.014,0.806,1.81,0.806s1.399-0.268,1.812-0.803
			c0.412-0.534,0.619-1.316,0.619-2.347c0-1.021-0.207-1.796-0.619-2.326c-0.413-0.529-1.021-0.794-1.827-0.794
			c-0.796,0-1.396,0.261-1.802,0.783S146.456,38.933,146.456,39.969z"/>
		<path class="st0" d="M155.787,35.962v5.208c0,0.654,0.149,1.143,0.447,1.465s0.764,0.483,1.398,0.483
			c0.84,0,1.454-0.229,1.842-0.688c0.389-0.459,0.583-1.209,0.583-2.249v-4.219h1.216v8.027h-1.004l-0.176-1.076h-0.065
			c-0.249,0.396-0.595,0.698-1.037,0.908c-0.441,0.21-0.945,0.314-1.512,0.314c-0.977,0-1.708-0.231-2.194-0.695
			c-0.485-0.464-0.729-1.206-0.729-2.227v-5.252L155.787,35.962L155.787,35.962z"/>
		<path class="st0" d="M167.459,44.136c-0.522,0-1-0.097-1.432-0.289c-0.433-0.192-0.795-0.489-1.088-0.89h-0.088
			c0.059,0.469,0.088,0.913,0.088,1.333v3.303h-1.216V35.962h0.989l0.168,1.099h0.059c0.312-0.439,0.677-0.757,1.092-0.952
			s0.891-0.293,1.428-0.293c1.064,0,1.886,0.364,2.465,1.092c0.578,0.728,0.868,1.748,0.868,3.062c0,1.318-0.295,2.343-0.883,3.072
			C169.321,43.771,168.504,44.136,167.459,44.136z M167.283,36.848c-0.82,0-1.413,0.227-1.779,0.681s-0.555,1.177-0.564,2.168v0.271
			c0,1.128,0.188,1.935,0.564,2.42c0.376,0.486,0.979,0.729,1.809,0.729c0.693,0,1.236-0.281,1.63-0.843
			c0.393-0.562,0.59-1.335,0.59-2.321c0-1.001-0.197-1.77-0.59-2.304C168.549,37.115,167.996,36.848,167.283,36.848z"/>
	</g>
	<g>
		<path class="st0" d="M63.374,6.97c4.433,0,6.853,1.572,6.853,5.847c0,3.489-1.603,4.212-2.578,4.621
			c2.766,1.069,3.458,3.206,3.458,5.564c0,3.709-1.697,6.507-7.922,6.507H52.371V6.97H63.374z M57.024,10.837v4.998h5.219
			c2.798,0,3.489-0.346,3.489-2.672c0-1.886-0.44-2.326-4.37-2.326H57.024z M57.024,19.702v5.942h4.181
			c4.244,0,5.187-0.314,5.187-2.892c0-2.703-0.88-3.049-4.275-3.049L57.024,19.702L57.024,19.702z"/>
		<path class="st0" d="M72.943,6.97h4.37v22.54h-4.37V6.97z"/>
		<path class="st0" d="M90.914,27.749c-1.132,1.823-3.175,2.169-5.124,2.169c-3.992,0-5.722-1.478-5.722-6.224V12.943h4.37v10.468
			c0,2.232,0.691,2.924,2.892,2.924c2.295,0,3.332-0.755,3.332-3.835v-9.557h4.369V29.51h-4.118L90.914,27.749L90.914,27.749z"/>
		<path class="st0" d="M112.513,24.763c-0.534,3.804-3.049,5.156-7.545,5.156c-5.124,0-7.922-1.76-7.922-8.865
			c0-4.747,1.258-8.519,8.111-8.519c5.816,0,7.545,2.704,7.545,9.903h-11.16c0.157,3.144,0.943,3.898,3.395,3.898
			c1.666,0,2.672-0.314,3.112-1.572L112.513,24.763L112.513,24.763z M108.331,19.67c-0.188-3.018-1.383-3.552-3.395-3.552
			c-2.547,0-3.206,0.88-3.364,3.552H108.331z"/>
		<path class="st0" d="M114.958,6.97h4.37v7.419c0.723-0.912,2.012-1.855,4.873-1.855c4.936,0,6.885,2.798,6.885,8.488
			c0,6.287-2.358,8.865-6.947,8.897c-2.075,0-3.898-0.283-4.967-1.98v1.572h-4.213L114.958,6.97L114.958,6.97z M122.88,26.335
			c2.578,0,3.71-0.912,3.71-5.218c0-3.49-0.755-4.998-3.772-4.998c-2.484,0-3.615,1.006-3.615,5.061
			C119.202,25.58,120.522,26.335,122.88,26.335z"/>
		<path class="st0" d="M148.236,24.763c-0.534,3.804-3.049,5.156-7.545,5.156c-5.124,0-7.922-1.76-7.922-8.865
			c0-4.747,1.258-8.519,8.11-8.519c5.816,0,7.545,2.704,7.545,9.903h-11.16c0.157,3.144,0.943,3.898,3.395,3.898
			c1.666,0,2.672-0.314,3.112-1.572L148.236,24.763L148.236,24.763z M144.055,19.67c-0.189-3.018-1.383-3.552-3.395-3.552
			c-2.546,0-3.206,0.88-3.364,3.552H144.055z"/>
		<path class="st0" d="M150.709,29.51V12.943h4.118v2.075c1.006-1.729,2.106-2.421,4.275-2.421c0.786,0,1.132,0.094,1.132,0.094
			v4.181c0,0-0.503-0.094-1.383-0.094c-3.458,0-3.772,2.829-3.772,6.602v6.13C155.079,29.51,150.709,29.51,150.709,29.51z"/>
		<path class="st0" d="M162.102,29.51V12.943h4.118v2.075c1.006-1.729,2.106-2.421,4.275-2.421c0.786,0,1.132,0.094,1.132,0.094
			v4.181c0,0-0.503-0.094-1.383-0.094c-3.458,0-3.772,2.829-3.772,6.602v6.13C166.472,29.51,162.102,29.51,162.102,29.51z"/>
		<path class="st0" d="M177.511,12.943c0.817,4.024,2.043,8.048,3.678,12.072l3.615-12.072h4.59l-5.91,16.567
			c-1.855,5.25-2.483,6.664-6.507,6.664c-1.195,0-2.201-0.126-2.201-0.126v-3.426c0,0,0.409,0.063,0.723,0.063
			c1.697,0,2.861-0.189,3.395-2.735c-2.578-5.659-4.621-11.349-6.193-17.007C172.701,12.943,177.511,12.943,177.511,12.943z"/>
	</g>
	<g>
		<circle class="st0" cx="17.22" cy="35.631" r="8.189"/>
		<circle class="st0" cx="37.692" cy="15.159" r="8.189"/>
		<path class="st0" d="M37.692,27.442c-6.784,0-12.283-5.499-12.283-12.283c0-4.523-3.666-8.189-8.189-8.189
			s-8.189,3.666-8.189,8.189s3.666,8.189,8.189,8.189c6.784,0,12.283,5.499,12.283,12.283c0,4.523,3.666,8.189,8.189,8.189
			s8.189-3.666,8.189-8.189S42.215,27.442,37.692,27.442z"/>
	</g>
</g>
</svg>
